<?xml version="1.0" encoding="UTF-8" standalone="no"?>
<!DOCTYPE svg PUBLIC "-//W3C//DTD SVG 1.1//EN" "http://www.w3.org/Graphics/SVG/1.1/DTD/svg11.dtd">
<svg width="100%" height="100%" viewBox="0 0 1245 759" version="1.1" xmlns="http://www.w3.org/2000/svg" xmlns:xlink="http://www.w3.org/1999/xlink" xml:space="preserve" xmlns:serif="http://www.serif.com/" style="fill-rule:evenodd;clip-rule:evenodd;stroke-linejoin:round;stroke-miterlimit:2;">
    <g transform="matrix(1,0,0,1,0.492144,-11.2377)">
        <g transform="matrix(1,0,0,1,0,101.181)">
            <path d="M1109.7,265.268L851.986,523.293L851.355,379.911L966.314,265.268L852.934,153.151L926.204,81.144L1109.7,265.268Z" style="fill:white;"/>
        </g>
        <g transform="matrix(1,0,0,1,0,101.181)">
            <path d="M893.76,55.689L674.297,274.692L674.093,523.009L572.956,523.075L573.292,275.709L353.379,55.998L496.888,55.796L623.419,181.922L749.244,55.816L893.76,55.689" style="fill:white;"/>
        </g>
        <g transform="matrix(1,0,0,1,0,101.181)">
            <path d="M320.113,79.718L392.393,151.513L278.718,265.188L393.04,378.864L393.04,523.424L134.319,265.026L320.113,79.718Z" style="fill:white;"/>
        </g>
    </g>
</svg>
